<svg width="950" height="283" viewBox="0 0 950 283" fill="none" xmlns="http://www.w3.org/2000/svg">
<path d="M138.99 249C152.78 249 166.435 246.284 179.176 241.007C191.916 235.731 203.492 227.996 213.243 218.246C222.994 208.496 230.729 196.921 236.007 184.182C241.284 171.443 244 157.789 244 144C244 130.211 241.284 116.557 236.007 103.818C230.729 91.0791 222.994 79.5039 213.243 69.7538C203.492 60.0036 191.916 52.2694 179.176 46.9927C166.435 41.7159 152.78 39 138.99 39C111.145 39 84.4405 50.0604 64.751 69.7481C45.0615 89.4358 34 116.138 34 143.981C34 171.823 45.0615 198.526 64.751 218.213C84.4405 237.901 111.145 249 138.99 249Z" stroke="#1A1A1A" stroke-width="66.6667" stroke-linecap="round" stroke-linejoin="round"/>
<path d="M318.984 119H317.32V29.4H321.672L374.92 112.216V29.4H376.584V119H367.24L318.984 44.76V119ZM398.955 104.28C398.955 111.021 400.747 115.331 404.331 117.208C406.038 118.061 408.214 118.488 410.859 118.488C416.235 118.488 421.014 116.44 425.195 112.344C429.462 108.248 431.766 104.451 432.107 100.952V55H441.067V109.912C441.067 112.387 441.536 114.307 442.475 115.672C443.499 116.952 444.523 117.635 445.547 117.72L446.955 117.976H450.923V119H443.115C439.616 119 436.928 118.232 435.051 116.696C433.259 115.16 432.32 113.624 432.235 112.088L432.107 109.912V104.408C430.571 108.077 427.84 111.533 423.915 114.776C419.99 117.933 415.68 119.512 410.987 119.512C406.379 119.512 402.582 119.085 399.595 118.232C396.694 117.293 394.603 116.013 393.323 114.392C391.104 111.747 389.995 108.333 389.995 104.152V55H398.955V104.28ZM456.73 56.024V55H459.418V42.2H468.378V55H487.962V56.024H468.378V102.616C468.378 108.163 468.975 112.173 470.17 114.648C471.45 117.123 474.053 118.36 477.978 118.36C481.989 118.36 486.042 117.549 490.138 115.928L490.522 116.952C486.255 118.573 481.349 119.384 475.802 119.384C470.341 119.384 466.245 118.275 463.514 116.056C460.783 113.752 459.418 109.229 459.418 102.488V56.024H456.73ZM526.197 55.512C520.138 55.512 515.061 58.4133 510.965 64.216C506.954 70.0187 504.949 78.04 504.949 88.28C504.949 98.52 506.784 106.115 510.453 111.064C514.208 116.013 519.114 118.488 525.173 118.488C532.768 118.488 539.509 117.208 545.397 114.648L545.781 115.544C539.722 118.189 532.64 119.512 524.533 119.512C516.426 119.512 509.685 116.952 504.309 111.832C498.933 106.712 496.245 98.8187 496.245 88.152C496.245 77.4853 499.061 69.208 504.693 63.32C510.325 57.432 517.493 54.488 526.197 54.488C531.061 54.488 535.541 55.5973 539.637 57.816C543.818 60.0347 546.89 63.4053 548.853 67.928H540.661C539.381 63.7467 537.418 60.632 534.773 58.584C532.213 56.536 529.354 55.512 526.197 55.512ZM611.63 119C608.131 119 605.443 118.232 603.566 116.696C601.774 115.16 600.835 113.624 600.75 112.088L600.622 109.912V69.72C600.622 62.9787 598.83 58.6693 595.246 56.792C593.539 55.9387 591.363 55.512 588.718 55.512C583.427 55.512 578.649 57.688 574.382 62.04C570.201 66.3067 568.11 70.1467 568.11 73.56V119H559.15V23.128H568.11V69.592C569.475 65.9227 572.078 62.5093 575.918 59.352C579.758 56.1093 584.067 54.488 588.846 54.488C597.123 54.488 602.627 55.9387 605.358 58.84C608.174 61.656 609.582 65.3253 609.582 69.848V109.912C609.582 112.387 610.051 114.307 610.99 115.672C612.014 116.952 612.995 117.635 613.934 117.72L615.47 117.976H619.438V119H611.63ZM679.359 119C673.556 119 669.588 117.891 667.455 115.672C665.492 113.795 664.511 112.173 664.511 110.808V108.12C660.33 115.715 653.631 119.512 644.415 119.512C633.663 119.512 627.562 114.648 626.111 104.92C625.94 103.896 625.855 102.872 625.855 101.848C625.855 100.739 626.026 99.544 626.367 98.264C626.708 96.984 627.69 95.576 629.311 94.04C632.554 90.968 639.679 89.0907 650.687 88.408C653.418 88.152 655.935 88.024 658.239 88.024C660.543 88.024 662.634 88.1093 664.511 88.28V67.032C664.34 66.9467 664.34 66.5627 664.511 65.88C664.682 65.112 664.511 64.1733 663.999 63.064C663.572 61.8693 662.975 60.7173 662.207 59.608C661.439 58.4987 660.074 57.56 658.111 56.792C656.148 55.9387 653.588 55.512 650.431 55.512C647.274 55.512 643.562 56.1093 639.295 57.304C635.114 58.4133 632.042 59.5227 630.079 60.632L629.567 59.736C637.162 56.2373 644.884 54.488 652.735 54.488C661.524 54.488 667.327 56.0667 670.143 59.224C672.362 61.6987 673.471 64.3013 673.471 67.032V109.912C673.471 112.387 673.94 114.307 674.879 115.672C675.903 116.952 676.927 117.635 677.951 117.72L679.359 117.976H683.327V119H679.359ZM646.463 118.488C650.986 118.488 655.039 116.952 658.623 113.88C662.292 110.723 664.255 107.693 664.511 104.792V89.304C662.207 89.1333 659.86 89.048 657.471 89.048C655.167 89.048 652.863 89.176 650.559 89.432C644.074 90.2 639.85 91.6507 637.887 93.784C635.924 95.9173 634.943 98.8613 634.943 102.616C634.943 103.299 634.986 104.067 635.071 104.92C635.839 113.965 639.636 118.488 646.463 118.488ZM762.608 119H751.984V30.68H729.84V29.4H784.88V30.68H762.608V119ZM845.13 119C841.631 119 838.943 118.232 837.066 116.696C835.274 115.16 834.335 113.624 834.25 112.088L834.122 109.912V69.72C834.122 62.9787 832.33 58.6693 828.746 56.792C827.039 55.9387 824.863 55.512 822.218 55.512C816.927 55.512 812.149 57.688 807.882 62.04C803.701 66.3067 801.61 70.1467 801.61 73.56V119H792.65V23.128H801.61V69.592C802.975 65.9227 805.578 62.5093 809.418 59.352C813.258 56.1093 817.567 54.488 822.346 54.488C830.623 54.488 836.127 55.9387 838.858 58.84C841.674 61.656 843.082 65.3253 843.082 69.848V109.912C843.082 112.387 843.551 114.307 844.49 115.672C845.514 116.952 846.495 117.635 847.434 117.72L848.97 117.976H852.938V119H845.13ZM912.859 119C907.056 119 903.088 117.891 900.955 115.672C898.992 113.795 898.011 112.173 898.011 110.808V108.12C893.83 115.715 887.131 119.512 877.915 119.512C867.163 119.512 861.062 114.648 859.611 104.92C859.44 103.896 859.355 102.872 859.355 101.848C859.355 100.739 859.526 99.544 859.867 98.264C860.208 96.984 861.19 95.576 862.811 94.04C866.054 90.968 873.179 89.0907 884.187 88.408C886.918 88.152 889.435 88.024 891.739 88.024C894.043 88.024 896.134 88.1093 898.011 88.28V67.032C897.84 66.9467 897.84 66.5627 898.011 65.88C898.182 65.112 898.011 64.1733 897.499 63.064C897.072 61.8693 896.475 60.7173 895.707 59.608C894.939 58.4987 893.574 57.56 891.611 56.792C889.648 55.9387 887.088 55.512 883.931 55.512C880.774 55.512 877.062 56.1093 872.795 57.304C868.614 58.4133 865.542 59.5227 863.579 60.632L863.067 59.736C870.662 56.2373 878.384 54.488 886.235 54.488C895.024 54.488 900.827 56.0667 903.643 59.224C905.862 61.6987 906.971 64.3013 906.971 67.032V109.912C906.971 112.387 907.44 114.307 908.379 115.672C909.403 116.952 910.427 117.635 911.451 117.72L912.859 117.976H916.827V119H912.859ZM879.963 118.488C884.486 118.488 888.539 116.952 892.123 113.88C895.792 110.723 897.755 107.693 898.011 104.792V89.304C895.707 89.1333 893.36 89.048 890.971 89.048C888.667 89.048 886.363 89.176 884.059 89.432C877.574 90.2 873.35 91.6507 871.387 93.784C869.424 95.9173 868.443 98.8613 868.443 102.616C868.443 103.299 868.486 104.067 868.571 104.92C869.339 113.965 873.136 118.488 879.963 118.488ZM936.926 119C933.427 119 930.739 118.232 928.862 116.696C927.07 115.16 926.131 113.624 926.046 112.088L925.918 109.912V55H934.878V109.912C934.878 112.387 935.347 114.307 936.286 115.672C937.31 116.952 938.291 117.635 939.23 117.72L940.766 117.976H944.734V119H936.926ZM926.686 40.664C925.662 39.64 925.15 38.36 925.15 36.824C925.15 35.288 925.662 34.008 926.686 32.984C927.71 31.8747 928.99 31.32 930.526 31.32C932.062 31.32 933.342 31.8747 934.366 32.984C935.475 34.008 936.03 35.288 936.03 36.824C936.03 38.36 935.475 39.64 934.366 40.664C933.342 41.688 932.062 42.2 930.526 42.2C928.99 42.2 927.71 41.688 926.686 40.664Z" fill="#1A1A1A"/>
<path d="M318.984 238H317.32L328.456 148.4H332.68L359.56 231.216L386.312 148.4H390.536L401.672 238H391.048L382.216 166.32L359.048 238H350.984L327.56 167.216L318.984 238ZM468.609 238C462.806 238 458.838 236.891 456.705 234.672C454.742 232.795 453.761 231.173 453.761 229.808V227.12C449.58 234.715 442.881 238.512 433.665 238.512C422.913 238.512 416.812 233.648 415.361 223.92C415.19 222.896 415.105 221.872 415.105 220.848C415.105 219.739 415.276 218.544 415.617 217.264C415.958 215.984 416.94 214.576 418.561 213.04C421.804 209.968 428.929 208.091 439.937 207.408C442.668 207.152 445.185 207.024 447.489 207.024C449.793 207.024 451.884 207.109 453.761 207.28V186.032C453.59 185.947 453.59 185.563 453.761 184.88C453.932 184.112 453.761 183.173 453.249 182.064C452.822 180.869 452.225 179.717 451.457 178.608C450.689 177.499 449.324 176.56 447.361 175.792C445.398 174.939 442.838 174.512 439.681 174.512C436.524 174.512 432.812 175.109 428.545 176.304C424.364 177.413 421.292 178.523 419.329 179.632L418.817 178.736C426.412 175.237 434.134 173.488 441.985 173.488C450.774 173.488 456.577 175.067 459.393 178.224C461.612 180.699 462.721 183.301 462.721 186.032V228.912C462.721 231.387 463.19 233.307 464.129 234.672C465.153 235.952 466.177 236.635 467.201 236.72L468.609 236.976H472.577V238H468.609ZM435.713 237.488C440.236 237.488 444.289 235.952 447.873 232.88C451.542 229.723 453.505 226.693 453.761 223.792V208.304C451.457 208.133 449.11 208.048 446.721 208.048C444.417 208.048 442.113 208.176 439.809 208.432C433.324 209.2 429.1 210.651 427.137 212.784C425.174 214.917 424.193 217.861 424.193 221.616C424.193 222.299 424.236 223.067 424.321 223.92C425.089 232.965 428.886 237.488 435.713 237.488ZM516.996 178.48C515.631 177.371 513.412 176.432 510.34 175.664C507.353 174.896 505.092 174.512 503.556 174.512C502.02 174.512 501.124 174.512 500.868 174.512C496.26 174.597 492.932 175.792 490.884 178.096C488.836 180.315 487.812 182.832 487.812 185.648C487.812 188.464 488.708 190.853 490.5 192.816C492.292 194.693 494.511 196.187 497.156 197.296C499.887 198.32 502.788 199.515 505.86 200.88C509.017 202.245 511.919 203.653 514.564 205.104C517.295 206.469 519.556 208.517 521.348 211.248C523.14 213.893 524.036 217.221 524.036 221.232C524.036 225.243 522.628 228.656 519.812 231.472C516.996 234.288 513.839 236.165 510.34 237.104C506.927 238.043 503.215 238.512 499.204 238.512C490.5 238.512 483.972 236.592 479.62 232.752L480.388 231.984C482.095 233.605 484.612 234.928 487.94 235.952C491.353 236.976 494.639 237.488 497.796 237.488C502.831 237.488 506.969 236.123 510.212 233.392C513.54 230.576 515.204 227.12 515.204 223.024C515.204 218.843 513.967 215.515 511.492 213.04C509.017 210.48 505.988 208.517 502.404 207.152C498.905 205.701 495.364 204.293 491.78 202.928C488.196 201.477 485.167 199.515 482.692 197.04C480.217 194.48 478.98 191.536 478.98 188.208C478.98 184.88 479.748 182.192 481.284 180.144C482.82 178.011 484.868 176.517 487.428 175.664C491.78 174.213 496.132 173.488 500.484 173.488C507.823 173.488 513.54 174.853 517.636 177.584L516.996 178.48ZM569.746 178.48C568.381 177.371 566.162 176.432 563.09 175.664C560.103 174.896 557.842 174.512 556.306 174.512C554.77 174.512 553.874 174.512 553.618 174.512C549.01 174.597 545.682 175.792 543.634 178.096C541.586 180.315 540.562 182.832 540.562 185.648C540.562 188.464 541.458 190.853 543.25 192.816C545.042 194.693 547.261 196.187 549.906 197.296C552.637 198.32 555.538 199.515 558.61 200.88C561.767 202.245 564.669 203.653 567.314 205.104C570.045 206.469 572.306 208.517 574.098 211.248C575.89 213.893 576.786 217.221 576.786 221.232C576.786 225.243 575.378 228.656 572.562 231.472C569.746 234.288 566.589 236.165 563.09 237.104C559.677 238.043 555.965 238.512 551.954 238.512C543.25 238.512 536.722 236.592 532.37 232.752L533.138 231.984C534.845 233.605 537.362 234.928 540.69 235.952C544.103 236.976 547.389 237.488 550.546 237.488C555.581 237.488 559.719 236.123 562.962 233.392C566.29 230.576 567.954 227.12 567.954 223.024C567.954 218.843 566.717 215.515 564.242 213.04C561.767 210.48 558.738 208.517 555.154 207.152C551.655 205.701 548.114 204.293 544.53 202.928C540.946 201.477 537.917 199.515 535.442 197.04C532.967 194.48 531.73 191.536 531.73 188.208C531.73 184.88 532.498 182.192 534.034 180.144C535.57 178.011 537.618 176.517 540.178 175.664C544.53 174.213 548.882 173.488 553.234 173.488C560.573 173.488 566.29 174.853 570.386 177.584L569.746 178.48ZM639.234 238C633.431 238 629.463 236.891 627.33 234.672C625.367 232.795 624.386 231.173 624.386 229.808V227.12C620.205 234.715 613.506 238.512 604.29 238.512C593.538 238.512 587.437 233.648 585.986 223.92C585.815 222.896 585.73 221.872 585.73 220.848C585.73 219.739 585.901 218.544 586.242 217.264C586.583 215.984 587.565 214.576 589.186 213.04C592.429 209.968 599.554 208.091 610.562 207.408C613.293 207.152 615.81 207.024 618.114 207.024C620.418 207.024 622.509 207.109 624.386 207.28V186.032C624.215 185.947 624.215 185.563 624.386 184.88C624.557 184.112 624.386 183.173 623.874 182.064C623.447 180.869 622.85 179.717 622.082 178.608C621.314 177.499 619.949 176.56 617.986 175.792C616.023 174.939 613.463 174.512 610.306 174.512C607.149 174.512 603.437 175.109 599.17 176.304C594.989 177.413 591.917 178.523 589.954 179.632L589.442 178.736C597.037 175.237 604.759 173.488 612.61 173.488C621.399 173.488 627.202 175.067 630.018 178.224C632.237 180.699 633.346 183.301 633.346 186.032V228.912C633.346 231.387 633.815 233.307 634.754 234.672C635.778 235.952 636.802 236.635 637.826 236.72L639.234 236.976H643.202V238H639.234ZM606.338 237.488C610.861 237.488 614.914 235.952 618.498 232.88C622.167 229.723 624.13 226.693 624.386 223.792V208.304C622.082 208.133 619.735 208.048 617.346 208.048C615.042 208.048 612.738 208.176 610.434 208.432C603.949 209.2 599.725 210.651 597.762 212.784C595.799 214.917 594.818 217.861 594.818 221.616C594.818 222.299 594.861 223.067 594.946 223.92C595.714 232.965 599.511 237.488 606.338 237.488ZM649.605 208.304C649.605 197.211 652.293 188.635 657.669 182.576C663.045 176.517 671.109 173.488 681.861 173.488C689.797 173.488 697.861 174.896 706.053 177.712V239.536C705.968 259.845 697.093 270 679.429 270C669.701 270 661.381 266.843 654.469 260.528L655.365 259.76C662.704 265.904 670.725 268.976 679.429 268.976C691.205 268.976 697.093 259.163 697.093 239.536V226.864C695.472 229.851 692.784 232.496 689.029 234.8C685.274 237.104 680.837 238.256 675.717 238.256C658.309 237.829 649.605 227.845 649.605 208.304ZM675.845 237.232C681.562 237.232 686.469 235.696 690.565 232.624C694.661 229.552 696.837 226.523 697.093 223.536V178.352C690.949 175.792 685.744 174.512 681.477 174.512C673.882 174.512 668.165 177.499 664.325 183.472C660.485 189.36 658.565 197.637 658.565 208.304C658.565 227.589 664.325 237.232 675.845 237.232ZM724.324 206.768C724.324 217.349 726.159 225.115 729.828 230.064C733.583 235.013 738.489 237.488 744.548 237.488C753.081 237.488 760.676 236.208 767.332 233.648L767.716 234.544C760.889 237.189 753.167 238.512 744.548 238.512C736.015 238.512 729.06 235.952 723.684 230.832C718.308 225.712 715.62 217.819 715.62 207.152C715.62 196.485 718.436 188.208 724.068 182.32C729.7 176.432 736.868 173.488 745.572 173.488C752.569 173.488 758.457 175.579 763.236 179.76C768.015 183.941 770.404 190.128 770.404 198.32C770.404 198.747 770.404 199.173 770.404 199.6H724.708C724.452 201.904 724.324 204.293 724.324 206.768ZM761.7 198.576C761.615 190.384 760.036 184.325 756.964 180.4C753.892 176.475 749.924 174.512 745.06 174.512C740.196 174.512 735.844 176.645 732.004 180.912C728.249 185.179 725.86 191.067 724.836 198.576H761.7Z" fill="#1A1A1A"/>
</svg>
