<svg width="800" height="800" viewBox="0 0 800 800" fill="none" xmlns="http://www.w3.org/2000/svg">
<path fill-rule="evenodd" clip-rule="evenodd" d="M67.0667 186.733C61.1 116.667 120.533 66.6666 183.733 66.6666H262.867C300.633 66.6666 334.7 89.4 349.2 124.267L388.2 218.067C401.533 250.167 395.967 287 373.767 313.733L332 363.933C359.195 405.115 392.784 441.696 431.5 472.3L486.1 426.733C499.234 415.76 515.128 408.601 532.05 406.039C548.972 403.476 566.272 405.607 582.067 412.2L675.467 451.2C692.491 458.31 707.032 470.298 717.258 485.655C727.484 501.011 732.938 519.05 732.933 537.5C732.933 550.5 733.033 563.533 733.133 576.7V576.767C733.233 589.867 733.333 603.1 733.333 616.367C733.333 679.567 683.333 739 613.267 733.033C328.6 708.7 91.3333 472.1 67.0667 186.733ZM183.733 133.333C152.267 133.333 131.4 156.867 133.5 181.1C155 434.033 366.567 645.033 618.933 666.6C643.133 668.667 666.667 647.833 666.667 616.367C666.667 603.367 666.567 590.367 666.467 577.2V577.133C666.367 564.033 666.267 550.8 666.267 537.5C666.267 532.204 664.701 527.027 661.765 522.62C658.828 518.212 654.654 514.773 649.767 512.733L556.367 473.733C551.835 471.842 546.872 471.231 542.017 471.965C537.162 472.7 532.602 474.753 528.833 477.9L434.433 556.733L413.5 542C351.99 498.683 300.422 442.751 262.233 377.933L250.433 357.767L322.5 271.1C325.629 267.334 327.668 262.785 328.397 257.943C329.126 253.102 328.516 248.153 326.633 243.633L287.667 149.867C285.63 144.968 282.187 140.783 277.773 137.84C273.359 134.897 268.172 133.329 262.867 133.333H183.733Z" fill="white"/>
</svg>
