<svg width="800" height="800" viewBox="0 0 800 800" fill="none" xmlns="http://www.w3.org/2000/svg">
<path d="M672.732 339.4C672.732 551.533 399.999 733.333 399.999 733.333C399.999 733.333 127.266 551.533 127.266 339.4C127.266 267.067 156 197.696 207.147 146.548C258.295 95.401 327.666 66.6667 399.999 66.6667C472.332 66.6667 541.703 95.401 592.851 146.548C643.998 197.696 672.732 267.067 672.732 339.4Z" stroke="white" stroke-width="66.6667" stroke-linecap="round" stroke-linejoin="round"/>
<path d="M399.999 430.333C411.94 430.333 423.765 427.981 434.797 423.411C445.83 418.842 455.854 412.144 464.298 403.7C472.742 395.256 479.44 385.231 484.01 374.199C488.58 363.166 490.932 351.342 490.932 339.4C490.932 327.458 488.58 315.634 484.01 304.601C479.44 293.569 472.742 283.544 464.298 275.1C455.854 266.656 445.83 259.958 434.797 255.389C423.765 250.819 411.94 248.467 399.999 248.467C375.886 248.467 352.761 258.045 335.711 275.096C318.661 292.146 309.082 315.271 309.082 339.383C309.082 363.496 318.661 386.621 335.711 403.671C352.761 420.721 375.886 430.333 399.999 430.333Z" stroke="white" stroke-width="66.6667" stroke-linecap="round" stroke-linejoin="round"/>
</svg>
